STARTFONT 2.1
FONT -AK Design-Seymour-Medium-R-Normal-Sans-16-160-100-100-M-100-CDC6000-1
SIZE 16 100 100
FONTBOUNDINGBOX 16 16 -2 -2
STARTPROPERTIES 25
FONTNAME_REGISTRY ""
FOUNDRY "AK Design"
FAMILY_NAME "Seymour"
WEIGHT_NAME "Medium"
SLANT "R"
SETWIDTH_NAME "Normal"
ADD_STYLE_NAME "Sans"
PIXEL_SIZE 16
POINT_SIZE 160
RESOLUTION_X 100
RESOLUTION_Y 100
SPACING "M"
AVERAGE_WIDTH 160
CHARSET_REGISTRY "CDC6000"
CHARSET_ENCODING "1"
COPYRIGHT "Copyright Paul Koning, 2003."
FACE_NAME "Seymour"
X_HEIGHT 14
CAP_HEIGHT 14
WEIGHT 10
RESOLUTION 100
QUAD_WIDTH 16
FONT_ASCENT 15
FONT_DESCENT 3
_XMBDFED_INFO "Edited with xmbdfed 4.5."
ENDPROPERTIES
CHARS 48
STARTCHAR char0
ENCODING 0
SWIDTH 720 0
DWIDTH 16 0
BBX 16 16 0 0
BITMAP
0000
0000
0000
0000
0000
0000
0000
0000
0000
0000
0000
0000
0000
0000
0000
0000
ENDCHAR
STARTCHAR char1
ENCODING 1
SWIDTH 720 0
DWIDTH 16 0
BBX 16 16 0 0
BITMAP
0000
0600
0600
0900
0900
1080
1080
1080
3FC0
2040
4020
4020
4020
8010
8010
0000
ENDCHAR
STARTCHAR char2
ENCODING 2
SWIDTH 720 0
DWIDTH 16 0
BBX 16 16 0 0
BITMAP
0000
FFC0
8020
8010
8010
8060
FF80
8040
8020
8010
8010
8010
8020
80C0
FF00
0000
ENDCHAR
STARTCHAR char3
ENCODING 3
SWIDTH 720 0
DWIDTH 16 0
BBX 16 16 0 0
BITMAP
0000
0E00
3180
4040
4020
8010
8000
8000
8000
8000
4000
2000
1010
0820
07C0
0000
ENDCHAR
STARTCHAR char4
ENCODING 4
SWIDTH 720 0
DWIDTH 16 0
BBX 16 16 0 0
BITMAP
0000
FFC0
8020
8010
8010
8010
8010
8010
8010
8010
8010
8020
8040
8380
FC00
0000
ENDCHAR
STARTCHAR char5
ENCODING 5
SWIDTH 720 0
DWIDTH 16 0
BBX 16 16 0 0
BITMAP
0000
FFF0
8000
8000
8000
8000
FC00
8000
8000
8000
8000
8000
8000
8000
FFF0
0000
ENDCHAR
STARTCHAR char6
ENCODING 6
SWIDTH 720 0
DWIDTH 16 0
BBX 16 16 0 0
BITMAP
0000
FFF0
8000
8000
8000
8000
FC00
8000
8000
8000
8000
8000
8000
8000
8000
0000
ENDCHAR
STARTCHAR char7
ENCODING 7
SWIDTH 720 0
DWIDTH 16 0
BBX 16 16 0 0
BITMAP
0000
0E00
3180
4040
4020
8010
8000
8000
8000
8180
4060
2010
1010
0820
07C0
0000
ENDCHAR
STARTCHAR char8
ENCODING 8
SWIDTH 720 0
DWIDTH 16 0
BBX 16 16 0 0
BITMAP
0000
8010
8010
8010
8010
8010
8010
FFF0
8010
8010
8010
8010
8010
8010
8010
0000
ENDCHAR
STARTCHAR char9
ENCODING 9
SWIDTH 720 0
DWIDTH 16 0
BBX 16 16 0 0
BITMAP
0000
0400
0400
0400
0400
0400
0400
0400
0400
0400
0400
0400
0400
0400
0400
0000
ENDCHAR
STARTCHAR char10
ENCODING 10
SWIDTH 720 0
DWIDTH 16 0
BBX 16 16 0 0
BITMAP
0000
0080
0080
0080
0080
0080
0080
0080
0080
0080
4080
4080
2080
1100
0E00
0000
ENDCHAR
STARTCHAR char11
ENCODING 11
SWIDTH 720 0
DWIDTH 16 0
BBX 16 16 0 0
BITMAP
0000
8030
80C0
8100
8200
8400
8800
9000
A000
C000
B000
8C00
8300
80C0
8030
0000
ENDCHAR
STARTCHAR char12
ENCODING 12
SWIDTH 720 0
DWIDTH 16 0
BBX 16 16 0 0
BITMAP
0000
8000
8000
8000
8000
8000
8000
8000
8000
8000
8000
8000
8000
8000
FFF0
0000
ENDCHAR
STARTCHAR char13
ENCODING 13
SWIDTH 720 0
DWIDTH 16 0
BBX 16 16 0 0
BITMAP
0000
8010
C030
A050
9890
8510
8210
8010
8010
8010
8010
8010
8010
8010
8010
0000
ENDCHAR
STARTCHAR char14
ENCODING 14
SWIDTH 720 0
DWIDTH 16 0
BBX 16 16 0 0
BITMAP
0000
C010
A010
9010
8810
8410
8210
8110
8090
8050
8030
8010
8010
8010
8010
0000
ENDCHAR
STARTCHAR char15
ENCODING 15
SWIDTH 720 0
DWIDTH 16 0
BBX 16 16 0 0
BITMAP
0000
01C0
0620
0820
1010
2010
4010
4010
8020
8020
8040
8040
4080
2300
1C00
0000
ENDCHAR
STARTCHAR char16
ENCODING 16
SWIDTH 720 0
DWIDTH 16 0
BBX 16 16 0 0
BITMAP
0000
FFC0
8020
8010
8010
8010
8060
8180
FE00
8000
8000
8000
8000
8000
8000
0000
ENDCHAR
STARTCHAR char17
ENCODING 17
SWIDTH 720 0
DWIDTH 16 0
BBX 16 16 0 0
BITMAP
0000
01C0
0620
0820
1010
2010
4010
4010
8020
8220
8140
80C0
40C0
2320
1C10
0000
ENDCHAR
STARTCHAR char18
ENCODING 18
SWIDTH 720 0
DWIDTH 16 0
BBX 16 16 0 0
BITMAP
0000
FFC0
8020
8010
8010
8010
8060
8180
FE00
8200
8100
8080
8040
8020
8010
0000
ENDCHAR
STARTCHAR char19
ENCODING 19
SWIDTH 720 0
DWIDTH 16 0
BBX 16 16 0 0
BITMAP
0000
0F00
30C0
4020
8010
8000
8000
4000
3800
0700
00E0
0010
0010
C060
3F80
0000
ENDCHAR
STARTCHAR char20
ENCODING 20
SWIDTH 720 0
DWIDTH 16 0
BBX 16 16 0 0
BITMAP
0000
FFF0
0200
0200
0200
0200
0200
0200
0200
0200
0200
0200
0200
0200
0200
0000
ENDCHAR
STARTCHAR char21
ENCODING 21
SWIDTH 720 0
DWIDTH 16 0
BBX 16 16 0 0
BITMAP
0000
8010
8010
8010
8010
8010
8010
8010
8010
4010
4010
2020
2020
1040
0F80
0000
ENDCHAR
STARTCHAR char22
ENCODING 22
SWIDTH 720 0
DWIDTH 16 0
BBX 16 16 0 0
BITMAP
0000
8010
8010
4020
4020
2040
2040
2040
1080
1080
1080
0900
0900
0600
0600
0000
ENDCHAR
STARTCHAR char23
ENCODING 23
SWIDTH 720 0
DWIDTH 16 0
BBX 16 16 0 0
BITMAP
0000
8010
8010
8010
8010
8010
8010
8010
8010
8210
8510
9890
A050
C030
8010
0000
ENDCHAR
STARTCHAR char24
ENCODING 24
SWIDTH 720 0
DWIDTH 16 0
BBX 16 16 0 0
BITMAP
0000
8010
4020
2040
1080
0880
0900
0600
0600
0900
1100
1080
2040
4020
8010
0000
ENDCHAR
STARTCHAR char25
ENCODING 25
SWIDTH 720 0
DWIDTH 16 0
BBX 16 16 0 0
BITMAP
0000
8010
4020
2020
1040
0880
0500
0200
0200
0200
0200
0200
0200
0200
0200
0000
ENDCHAR
STARTCHAR char26
ENCODING 26
SWIDTH 720 0
DWIDTH 16 0
BBX 16 16 0 0
BITMAP
0000
FFF0
0010
0020
0040
0080
0100
0200
0400
0800
1000
2000
4000
8000
FFF0
0000
ENDCHAR
STARTCHAR char27
ENCODING 27
SWIDTH 720 0
DWIDTH 16 0
BBX 16 16 0 0
BITMAP
0000
0FC0
1020
2010
4010
8010
8010
8010
8010
8010
8010
8010
8020
4040
3F80
0000
ENDCHAR
STARTCHAR char28
ENCODING 28
SWIDTH 720 0
DWIDTH 16 0
BBX 16 16 0 0
BITMAP
0000
0600
0A00
1200
2200
0200
0200
0200
0200
0200
0200
0200
0200
0200
0200
0000
ENDCHAR
STARTCHAR char29
ENCODING 29
SWIDTH 720 0
DWIDTH 16 0
BBX 16 16 0 0
BITMAP
0000
03C0
0C20
1020
2010
0010
0010
0020
0040
0080
0100
0600
1800
2000
3FF0
0000
ENDCHAR
STARTCHAR char30
ENCODING 30
SWIDTH 720 0
DWIDTH 16 0
BBX 16 16 0 0
BITMAP
0000
0FC0
3020
4010
0010
0010
0020
03C0
0040
0020
0010
0010
4010
2060
1F80
0000
ENDCHAR
STARTCHAR char31
ENCODING 31
SWIDTH 720 0
DWIDTH 16 0
BBX 16 16 0 0
BITMAP
0000
0100
0300
0300
0500
0500
0900
1100
1100
2100
4100
7FF0
0100
0100
0100
0000
ENDCHAR
STARTCHAR char32
ENCODING 32
SWIDTH 720 0
DWIDTH 16 0
BBX 16 16 0 0
BITMAP
0000
FFE0
8000
8000
8000
8000
FF00
00C0
0020
0010
0010
8010
4020
3040
0F80
0000
ENDCHAR
STARTCHAR char33
ENCODING 33
SWIDTH 720 0
DWIDTH 16 0
BBX 16 16 0 0
BITMAP
0000
07C0
1820
2000
4000
4380
8C40
B020
C020
8010
8010
8010
8020
40C0
3F00
0000
ENDCHAR
STARTCHAR char34
ENCODING 34
SWIDTH 720 0
DWIDTH 16 0
BBX 16 16 0 0
BITMAP
0000
3FE0
0020
0040
0080
0100
0100
0200
0200
0400
0400
0800
0800
1000
1000
0000
ENDCHAR
STARTCHAR char35
ENCODING 35
SWIDTH 720 0
DWIDTH 16 0
BBX 16 16 0 0
BITMAP
0000
07C0
1820
2010
4010
4020
2020
1FC0
2020
4010
8010
8010
8020
40C0
3F00
0000
ENDCHAR
STARTCHAR char36
ENCODING 36
SWIDTH 720 0
DWIDTH 16 0
BBX 16 16 0 0
BITMAP
0000
0FC0
3020
4010
8010
8010
8010
4030
40D0
2310
1C20
0020
0040
4180
3E00
0000
ENDCHAR
STARTCHAR char37
ENCODING 37
SWIDTH 720 0
DWIDTH 16 0
BBX 16 16 0 0
BITMAP
0000
0000
0000
0000
0400
0400
0400
0400
0400
FFE0
0400
0400
0400
0400
0400
0000
ENDCHAR
STARTCHAR char38
ENCODING 38
SWIDTH 720 0
DWIDTH 16 0
BBX 16 16 0 0
BITMAP
0000
0000
0000
0000
0000
0000
0000
0000
0000
FFE0
0000
0000
0000
0000
0000
0000
ENDCHAR
STARTCHAR char39
ENCODING 39
SWIDTH 720 0
DWIDTH 16 0
BBX 16 16 0 0
BITMAP
0000
0000
0000
0000
0000
4040
2080
1100
0A00
FFE0
0A00
1100
2080
4040
0000
0000
ENDCHAR
STARTCHAR char40
ENCODING 40
SWIDTH 720 0
DWIDTH 16 0
BBX 16 16 0 0
BITMAP
0000
0010
0020
0040
0080
0080
0100
0200
0400
0800
1000
1000
2000
4000
8000
0000
ENDCHAR
STARTCHAR char41
ENCODING 41
SWIDTH 720 0
DWIDTH 16 0
BBX 16 16 0 0
BITMAP
0000
0300
0400
0800
0800
1000
1000
1000
1000
1000
1000
0800
0800
0400
0300
0000
ENDCHAR
STARTCHAR char42
ENCODING 42
SWIDTH 720 0
DWIDTH 16 0
BBX 16 16 0 0
BITMAP
0000
1800
0400
0200
0200
0100
0100
0100
0100
0100
0100
0200
0200
0400
1800
0000
ENDCHAR
STARTCHAR char43
ENCODING 43
SWIDTH 720 0
DWIDTH 16 0
BBX 16 16 0 0
BITMAP
0000
0000
0000
0000
0000
0000
0000
0000
0000
0000
0000
0000
0000
0000
0000
0000
ENDCHAR
STARTCHAR char44
ENCODING 44
SWIDTH 720 0
DWIDTH 16 0
BBX 16 16 0 0
BITMAP
0000
0000
0000
0000
0000
0000
FFE0
0000
0000
0000
FFE0
0000
0000
0000
0000
0000
ENDCHAR
STARTCHAR char45
ENCODING 45
SWIDTH 720 0
DWIDTH 16 0
BBX 16 16 0 0
BITMAP
0000
0000
0000
0000
0000
0000
0000
0000
0000
0000
0000
0000
0000
0000
0000
0000
ENDCHAR
STARTCHAR char46
ENCODING 46
SWIDTH 720 0
DWIDTH 16 0
BBX 16 16 0 0
BITMAP
0000
0000
0000
0000
0000
0000
0000
0000
0000
0000
0300
0300
0600
0400
0000
0000
ENDCHAR
STARTCHAR char47
ENCODING 47
SWIDTH 720 0
DWIDTH 16 0
BBX 16 16 0 0
BITMAP
0000
0000
0000
0000
0000
0000
0000
0000
0000
0000
0000
0C00
0C00
0000
0000
0000
ENDCHAR
ENDFONT
